screens;
 
http://baypic.net/img-51a05ff0a30e3.html 
 
http://baypic.net/img-51a05ff2ebfbe.html 
 
http://baypic.net/img-51a05ff514287.html 

Format : MPEG-4
Format profile : Base Media
Codec ID : isom
File size : 1.13 GiB
Duration : 24mn 9s
Overall bit rate mode : Variable
Overall bit rate : 6 705 Kbps
Writing application : Lavf54.22.100

Video
ID : 1
Format : MPEG-4 Visual
Format profile : Simple@L1
Format settings, BVOP : No
Format settings, QPel : No
Format settings, GMC : No warppoints
Format settings, Matrix : Default (H.263)
Codec ID : 20
Duration : 24mn 9s
Bit rate mode : Variable
Bit rate : 6 599 Kbps
Maximum bit rate : 8 500 Kbps
Width : 1 920 pixels
Height : 1 080 pixels
Display aspect ratio : 16:9
Frame rate mode : Constant
Frame rate : 25.000 fps
Color space : YUV
Chroma subsampling : 4:2:0
Bit depth : 8 bits
Scan type : Progressive
Compression mode : Lossy
Bits/(Pixel*Frame) : 0.127
Stream size : 1.11 GiB (98%)
Writing library : Lavc54.46.100
Language : English

Audio
ID : 2
Format : AAC
Format/Info : Advanced Audio Codec
Format profile : LC
Codec ID : 40
Duration : 24mn 9s
Duration_LastFrame : -1ms
Bit rate mode : Variable
Bit rate : 101 Kbps
Maximum bit rate : 128 Kbps
Channel(s) : 2 channels
Channel positions : Front: L R
Sampling rate : 48.0 KHz
Compression mode : Lossy
Stream size : 17.5 MiB (2%)
Language : English

